<svg width="1280" height="939" viewBox="0 0 1280 939" fill="none" xmlns="http://www.w3.org/2000/svg">
<g clip-path="url(#clip0_248_3)">
<path d="M1280 76.9985H0V796.999H1280V76.9985Z" fill="#43AC87"/>
<path d="M854.288 707.441C853.148 711.52 850.954 715.226 847.926 718.186C844.898 721.147 841.143 723.257 837.04 724.305C832.937 725.352 828.63 725.3 824.553 724.153C820.477 723.006 816.774 720.805 813.819 717.772C772.537 674.246 681.942 551.845 737.404 356.285C761.428 271.575 804.997 203.67 866.839 154.533C917.643 114.063 966.91 97.2896 990.612 89.3534C996.617 87.3264 1003.18 87.7681 1008.86 90.5813C1014.54 93.3945 1018.87 98.3489 1020.9 104.354C1020.92 104.429 1020.95 104.503 1020.97 104.578C1022.95 110.681 1022.46 117.318 1019.59 123.059C1016.73 128.8 1011.72 133.185 1005.65 135.27C962.926 149.786 833.183 193.788 783.399 369.329C734.787 540.734 812.759 646.505 848.431 683.972C851.421 686.999 853.542 690.775 854.573 694.904C855.603 699.033 855.505 703.363 854.288 707.441Z" fill="#43B18A"/>
<path d="M1419.67 443.419C1419.14 445.377 1418.37 447.26 1417.37 449.022C1341.58 580.724 1183.29 593.033 1176.73 593.494L1175.31 593.45C1170.84 593.435 1064.5 594.02 1019.31 534.013C998.678 506.533 993.911 472.29 1005.31 432.086C1015.92 394.695 1035.31 371.058 1064.89 359.425C1089.06 349.835 1115.28 350.657 1140.63 351.411C1193.29 352.938 1221.63 351.324 1238.92 300.455C1246.5 278.117 1237.33 259.426 1228.3 247.75C1203.67 216.097 1154.01 197.721 1104.46 202.259C1040.26 208.006 908.99 255.507 869.763 393.822C853.012 452.887 856.814 512.598 880.541 566.34C900.258 610.9 934.33 651.488 973.783 677.514C1047.3 725.891 1183.67 728.46 1184.93 728.457C1188.06 728.511 1191.15 729.181 1194.02 730.43C1196.89 731.678 1199.49 733.48 1201.67 735.733C1203.85 737.986 1205.56 740.645 1206.71 743.56C1207.86 746.474 1208.42 749.586 1208.37 752.718C1208.36 752.805 1208.36 752.892 1208.36 752.979C1208.24 759.391 1205.61 765.5 1201.02 769.987C1196.44 774.473 1190.28 776.976 1183.86 776.956C1177.65 776.803 1032.18 774.157 947.216 718.243C855.23 657.477 781.373 529.635 823.603 380.731C843.123 311.904 885.222 253.593 945.284 211.994C991.946 179.824 1048.36 158.643 1100.09 154.006C1166.12 148.066 1231.23 173.145 1265.76 217.795C1288.78 247.561 1295.32 282.486 1284.04 315.934C1254.52 403.016 1187.64 401.21 1138.86 399.888C1088.82 398.568 1064.16 399.797 1051.26 445.296C1044.18 470.278 1046.15 489.787 1057.45 504.788C1072.91 525.263 1103.36 535.148 1126.16 539.828C1126.4 539.878 1126.64 539.927 1126.88 539.976C1155.91 545.846 1185.9 545.055 1214.59 537.662C1260.7 525.926 1334.65 496.562 1375.98 424.772C1379.1 419.255 1384.28 415.2 1390.38 413.501C1396.48 411.802 1403.01 412.598 1408.53 415.712C1408.6 415.75 1408.66 415.788 1408.73 415.826C1413.33 418.584 1416.9 422.781 1418.88 427.768C1420.85 432.756 1421.13 438.257 1419.67 443.419Z" fill="#43B18A"/>
<path d="M1357.47 622.411C1356.57 625.597 1355.03 628.566 1352.95 631.141C1350.86 633.715 1348.28 635.84 1345.36 637.388C1269.04 677.057 1192.6 690.057 1104.96 678.251L1104.46 678.11C1046.78 669.081 970.679 636.772 930.207 572.74C900.35 525.482 894.312 469.249 912.283 405.882C933.538 330.934 985.483 282.029 1062.41 264.162C1097.71 256.238 1134.15 254.822 1169.96 259.984C1176.23 261.173 1181.78 264.784 1185.41 270.036C1189.04 275.287 1190.46 281.757 1189.36 288.045C1188.25 294.333 1184.72 299.935 1179.52 303.639C1174.32 307.342 1167.87 308.85 1161.57 307.835C1131.59 303.681 1101.1 305.029 1071.6 311.814C1012.73 325.866 974.631 361.894 958.396 419.139C944.366 468.608 948.442 511.593 970.669 546.676C1002.63 597.213 1066.54 623.38 1111.72 630.474C1189.17 641 1256.43 629.506 1323.54 594.556C1326.31 593.11 1329.33 592.223 1332.45 591.947C1335.56 591.67 1338.69 592.009 1341.67 592.944C1344.65 593.879 1347.42 595.393 1349.82 597.397C1352.21 599.402 1354.19 601.858 1355.64 604.627C1355.69 604.737 1355.75 604.847 1355.8 604.958C1358.5 610.368 1359.1 616.588 1357.47 622.411Z" fill="#43B18A"/>
</g>
<defs>
<clipPath id="clip0_248_3">
<rect width="1280" height="939" fill="white"/>
</clipPath>
</defs>
</svg>
