<svg width="290" height="290" viewBox="0 0 290 290" fill="none" xmlns="http://www.w3.org/2000/svg">
<circle cx="145" cy="145" r="143.5" fill="#F7F7F7" stroke="#E3E3E3" stroke-width="3"/>
<path d="M58.9395 75H167.941C171.636 75.0042 175.179 76.4757 177.793 79.0919C180.406 81.708 181.876 85.2551 181.88 88.9549V148.653C181.876 152.353 180.406 155.9 177.793 158.516C175.179 161.132 171.636 162.604 167.941 162.608H58.9395C55.2438 162.604 51.7006 161.132 49.0874 158.516C46.4741 155.9 45.0042 152.353 45 148.653V88.9549C45.0042 85.2551 46.4741 81.708 49.0874 79.0919C51.7006 76.4757 55.2438 75.0042 58.9395 75Z" fill="#F2F2F2"/>
<path d="M58.9397 79.0175H167.941C170.573 79.0204 173.096 80.0683 174.957 81.9314C176.818 83.7944 177.865 86.3203 177.868 88.955V148.653C177.865 151.288 176.818 153.814 174.957 155.677C173.096 157.54 170.573 158.588 167.941 158.591H58.9397C56.3079 158.588 53.7848 157.54 51.9238 155.677C50.0629 153.814 49.0161 151.288 49.0132 148.653V88.955C49.0161 86.3203 50.0629 83.7944 51.9238 81.9314C53.7848 80.0684 56.3079 79.0204 58.9397 79.0175Z" fill="white"/>
<path d="M60.0027 183.982C59.6738 183.981 59.3483 183.915 59.0449 183.788C58.592 183.605 58.2046 183.291 57.9334 182.884C57.6622 182.478 57.5199 181.999 57.525 181.511V160.873L85.0079 159.948L61.728 183.253C61.5028 183.483 61.2344 183.666 60.9383 183.791C60.6421 183.916 60.3241 183.981 60.0027 183.982Z" fill="#F2F2F2"/>
<path d="M154.289 93.8665H72.3256C69.044 93.8665 66.3838 96.5296 66.3838 99.8148V99.8149C66.3838 103.1 69.044 105.763 72.3256 105.763H154.289C157.571 105.763 160.231 103.1 160.231 99.8148C160.231 96.5296 157.571 93.8665 154.289 93.8665Z" fill="#F2F2F2"/>
<path d="M154.422 112.855H72.4584C69.1769 112.855 66.5166 115.519 66.5166 118.804V118.804C66.5166 122.089 69.1769 124.752 72.4584 124.752H154.422C157.703 124.752 160.364 122.089 160.364 118.804C160.364 115.519 157.703 112.855 154.422 112.855Z" fill="#F2F2F2"/>
<path d="M154.555 131.845H72.5912C69.3097 131.845 66.6494 134.508 66.6494 137.793V137.793C66.6494 141.078 69.3097 143.741 72.5912 143.741H154.555C157.836 143.741 160.496 141.078 160.496 137.793C160.496 134.508 157.836 131.845 154.555 131.845Z" fill="#F2F2F2"/>
<path d="M231.06 105.447H122.059C118.363 105.451 114.82 106.923 112.207 109.539C109.594 112.155 108.124 115.702 108.12 119.402V179.1C108.124 182.8 109.594 186.347 112.207 188.963C114.82 191.579 118.363 193.05 122.059 193.055H231.06C234.756 193.05 238.299 191.579 240.912 188.963C243.526 186.347 244.996 182.8 245 179.1V119.402C244.996 115.702 243.526 112.155 240.912 109.539C238.299 106.923 234.756 105.451 231.06 105.447Z" fill="#E6E6E6"/>
<path d="M231.061 109.464H122.059C119.428 109.467 116.904 110.515 115.044 112.378C113.183 114.241 112.136 116.767 112.133 119.402V179.1C112.136 181.735 113.183 184.261 115.044 186.124C116.904 187.987 119.428 189.035 122.059 189.037H231.061C233.693 189.034 236.216 187.987 238.077 186.124C239.938 184.261 240.984 181.735 240.987 179.1V119.402C240.984 116.767 239.938 114.241 238.077 112.378C236.216 110.515 233.693 109.467 231.061 109.464Z" fill="white"/>
<path d="M222.769 213.7L199.489 190.395L226.972 191.32V211.958C226.977 212.446 226.834 212.925 226.563 213.331C226.292 213.738 225.905 214.052 225.452 214.235C225.148 214.362 224.823 214.428 224.494 214.429C224.173 214.428 223.855 214.363 223.558 214.238C223.262 214.113 222.994 213.93 222.769 213.7Z" fill="#E6E6E6"/>
<path d="M152.519 156.79C156.678 156.79 160.05 153.415 160.05 149.251C160.05 145.087 156.678 141.712 152.519 141.712C148.36 141.712 144.988 145.087 144.988 149.251C144.988 153.415 148.36 156.79 152.519 156.79Z" fill="#43AC87"/>
<path d="M176.56 156.79C180.719 156.79 184.091 153.415 184.091 149.251C184.091 145.087 180.719 141.712 176.56 141.712C172.401 141.712 169.029 145.087 169.029 149.251C169.029 153.415 172.401 156.79 176.56 156.79Z" fill="#43AC87"/>
<path d="M200.601 156.79C204.76 156.79 208.132 153.415 208.132 149.251C208.132 145.087 204.76 141.712 200.601 141.712C196.442 141.712 193.07 145.087 193.07 149.251C193.07 153.415 196.442 156.79 200.601 156.79Z" fill="#43AC87"/>
</svg>
