<svg width="290" height="290" viewBox="0 0 290 290" fill="none" xmlns="http://www.w3.org/2000/svg">
<circle cx="145" cy="145" r="143.5" fill="#F7F7F7" stroke="#E3E3E3" stroke-width="3"/>
<path d="M238.715 225H51.2847C49.6179 225 48.0193 224.336 46.8407 223.154C45.6621 221.972 45 220.368 45 218.696C112.944 210.776 179.61 210.776 245 218.696C245 220.368 244.338 221.972 243.159 223.154C241.981 224.336 240.382 225 238.715 225Z" fill="#2F2E41"/>
<path d="M245 219.067L45 218.696L68.1793 179.577L68.2902 179.392V93.1771C68.2901 92.1306 68.4956 91.0944 68.8948 90.1276C69.294 89.1608 69.8792 88.2823 70.6169 87.5423C71.3547 86.8024 72.2305 86.2154 73.1944 85.815C74.1583 85.4146 75.1914 85.2085 76.2347 85.2086H212.656C213.699 85.2085 214.733 85.4146 215.697 85.815C216.66 86.2154 217.536 86.8024 218.274 87.5423C219.012 88.2823 219.597 89.1608 219.996 90.1276C220.395 91.0944 220.601 92.1306 220.601 93.1771V179.985L245 219.067Z" fill="#3F3D56"/>
<path d="M76.0536 90.7705C75.3675 90.7713 74.7098 91.045 74.2246 91.5316C73.7395 92.0182 73.4666 92.6779 73.4658 93.3661V171.976C73.4666 172.664 73.7395 173.323 74.2246 173.81C74.7098 174.297 75.3675 174.57 76.0536 174.571H213.946C214.632 174.57 215.29 174.297 215.775 173.81C216.26 173.323 216.533 172.664 216.534 171.976V93.3661C216.533 92.678 216.261 92.0182 215.775 91.5316C215.29 91.045 214.633 90.7713 213.946 90.7705H76.0536Z" fill="white"/>
<path d="M76.6313 184.953C76.4193 184.954 76.2118 185.015 76.0333 185.13C75.8548 185.244 75.7127 185.408 75.6237 185.601L68.4814 201.175C68.4037 201.344 68.3697 201.53 68.3825 201.716C68.3954 201.903 68.4547 202.082 68.5551 202.24C68.6554 202.397 68.7935 202.526 68.9567 202.615C69.1199 202.705 69.3029 202.752 69.4889 202.752H219.687C219.876 202.752 220.062 202.703 220.227 202.611C220.392 202.519 220.531 202.386 220.63 202.224C220.73 202.063 220.786 201.879 220.795 201.689C220.803 201.5 220.763 201.312 220.679 201.142L212.915 185.568C212.824 185.383 212.682 185.227 212.507 185.119C212.332 185.01 212.13 184.953 211.923 184.953H76.6313Z" fill="#2F2E41"/>
<path d="M144.445 89.4728C145.364 89.4728 146.109 88.7258 146.109 87.8042C146.109 86.8827 145.364 86.1356 144.445 86.1356C143.527 86.1356 142.782 86.8827 142.782 87.8042C142.782 88.7258 143.527 89.4728 144.445 89.4728Z" fill="white"/>
<path d="M129.682 205.718C129.439 205.719 129.202 205.799 129.008 205.948C128.815 206.097 128.675 206.305 128.612 206.541L126.82 213.216C126.776 213.381 126.77 213.554 126.803 213.721C126.836 213.889 126.907 214.046 127.01 214.182C127.114 214.317 127.247 214.427 127.4 214.503C127.553 214.578 127.72 214.618 127.891 214.618H161.962C162.139 214.618 162.313 214.575 162.47 214.494C162.628 214.413 162.763 214.295 162.866 214.15C162.968 214.006 163.035 213.839 163.06 213.663C163.085 213.488 163.068 213.309 163.01 213.141L160.707 206.467C160.631 206.248 160.49 206.059 160.302 205.925C160.114 205.791 159.889 205.718 159.659 205.718H129.682Z" fill="#2F2E41"/>
<path d="M220.601 178.094V179.577H68.1792L68.2939 179.392V178.094H220.601Z" fill="#2F2E41"/>
<path d="M216.349 116.912C230.641 116.912 242.227 105.291 242.227 90.956C242.227 76.6209 230.641 65 216.349 65C202.057 65 190.471 76.6209 190.471 90.956C190.471 105.291 202.057 116.912 216.349 116.912Z" fill="#43AC87"/>
<path d="M227.07 102.265H205.628C205.236 102.265 204.86 102.109 204.583 101.831C204.306 101.553 204.15 101.175 204.149 100.782V87.8042C204.15 87.411 204.306 87.034 204.583 86.7559C204.86 86.4779 205.236 86.3215 205.628 86.321H227.07C227.462 86.3215 227.838 86.4779 228.115 86.7559C228.392 87.034 228.548 87.411 228.549 87.8042V100.782C228.548 101.175 228.392 101.553 228.115 101.831C227.838 102.109 227.462 102.265 227.07 102.265ZM205.628 87.8043V100.782H227.071L227.07 87.8042L205.628 87.8043Z" fill="white"/>
<path d="M223.004 87.8042H209.695V81.8714C209.695 77.5743 212.493 74.4554 216.349 74.4554C220.205 74.4554 223.004 77.5743 223.004 81.8714L223.004 87.8042ZM211.174 86.321H221.525V81.8714C221.525 78.3783 219.397 75.9386 216.349 75.9386C213.302 75.9386 211.174 78.3784 211.174 81.8714L211.174 86.321Z" fill="white"/>
<path d="M216.349 95.4056C217.166 95.4056 217.828 94.7416 217.828 93.9224C217.828 93.1033 217.166 92.4392 216.349 92.4392C215.533 92.4392 214.871 93.1033 214.871 93.9224C214.871 94.7416 215.533 95.4056 216.349 95.4056Z" fill="white"/>
<path d="M198.284 147.908H91.7157C91.1925 147.907 90.6908 147.698 90.3209 147.327C89.9509 146.956 89.7428 146.453 89.7422 145.928V119.414C89.7428 118.889 89.9509 118.386 90.3209 118.015C90.6908 117.643 91.1925 117.435 91.7157 117.434H198.284C198.807 117.435 199.309 117.643 199.679 118.015C200.049 118.386 200.257 118.889 200.258 119.414V145.928C200.257 146.453 200.049 146.956 199.679 147.327C199.309 147.698 198.807 147.907 198.284 147.908ZM91.7157 118.226C91.4017 118.226 91.1008 118.351 90.8788 118.574C90.6568 118.797 90.5319 119.099 90.5316 119.414V145.928C90.5319 146.243 90.6568 146.545 90.8788 146.768C91.1008 146.99 91.4017 147.116 91.7157 147.116H198.284C198.598 147.116 198.899 146.99 199.121 146.768C199.343 146.545 199.468 146.243 199.468 145.928V119.414C199.468 119.099 199.343 118.797 199.121 118.574C198.899 118.351 198.598 118.226 198.284 118.226L91.7157 118.226Z" fill="#E6E6E6"/>
<path d="M108.274 139.717C112.714 139.717 116.313 136.107 116.313 131.654C116.313 127.2 112.714 123.59 108.274 123.59C103.835 123.59 100.235 127.2 100.235 131.654C100.235 136.107 103.835 139.717 108.274 139.717Z" fill="#E6E6E6"/>
<path d="M126.84 126.278C126.664 126.278 126.49 126.312 126.327 126.38C126.164 126.447 126.016 126.546 125.892 126.671C125.767 126.796 125.668 126.944 125.601 127.107C125.533 127.27 125.499 127.445 125.499 127.622C125.499 127.799 125.533 127.974 125.601 128.137C125.668 128.3 125.767 128.448 125.892 128.573C126.016 128.698 126.164 128.797 126.327 128.864C126.49 128.932 126.664 128.966 126.84 128.966H190.004C190.359 128.966 190.7 128.824 190.951 128.572C191.202 128.32 191.343 127.978 191.343 127.622C191.343 127.266 191.202 126.924 190.951 126.672C190.7 126.42 190.359 126.278 190.004 126.278H126.84Z" fill="#E6E6E6"/>
<path d="M126.84 134.341C126.485 134.341 126.144 134.483 125.893 134.735C125.642 134.987 125.5 135.329 125.5 135.685C125.5 136.041 125.642 136.383 125.893 136.635C126.144 136.887 126.485 137.029 126.84 137.029H154.02C154.375 137.029 154.716 136.887 154.967 136.635C155.218 136.383 155.359 136.041 155.359 135.685C155.359 135.329 155.218 134.987 154.967 134.735C154.716 134.483 154.375 134.341 154.02 134.341H126.84Z" fill="#E6E6E6"/>
</svg>
