<svg width="290" height="290" viewBox="0 0 290 290" fill="none" xmlns="http://www.w3.org/2000/svg">
<circle cx="145" cy="145" r="143.5" fill="#F7F7F7" stroke="#E3E3E3" stroke-width="3"/>
<path d="M117.279 86.9527C117.284 92.7482 115.878 98.4586 113.183 103.596C110.487 108.734 106.582 113.146 101.8 116.456C100.453 117.393 99.0428 118.237 97.5789 118.982C97.0931 119.229 96.6039 119.465 96.1056 119.688C95.6569 119.893 95.2053 120.085 94.7473 120.268C89.0674 122.556 82.8975 123.375 76.8134 122.648C75.7605 122.524 74.7211 122.354 73.6951 122.137C73.6516 122.127 73.6048 122.118 73.5612 122.109C71.4127 121.657 69.3112 121.006 67.2841 120.166C61.241 117.67 55.9922 113.588 52.0979 108.357C48.2036 103.126 45.8099 96.9404 45.1721 90.4614C44.5343 83.9824 45.6764 77.4527 48.4766 71.569C51.2767 65.6853 55.6298 60.6683 61.0714 57.0533C66.513 53.4384 72.8389 51.3611 79.3742 51.0431C85.9095 50.7251 92.409 52.1783 98.1792 55.2477C103.949 58.3171 108.774 62.8875 112.138 68.4713C115.501 74.0551 117.278 80.4428 117.279 86.9527Z" fill="white"/>
<path d="M87.797 80.2425C87.7658 80.2053 87.7316 80.1712 87.6974 80.1371C85.7667 78.1976 83.1449 77.0941 80.4013 77.0662C77.6577 77.0384 75.0138 78.0884 73.0437 79.9884C73.022 80.007 73.0033 80.0256 72.9846 80.0442C72.9596 80.0659 72.9379 80.0875 72.916 80.1093C71.9458 81.0722 71.1761 82.2161 70.6512 83.4755C70.1263 84.735 69.8563 86.0851 69.8569 87.4485V93.9572C69.8575 94.3269 70.0054 94.6814 70.2681 94.9428C70.5309 95.2043 70.8871 95.3514 71.2588 95.3519H89.3266C89.6982 95.3514 90.0544 95.2043 90.3172 94.9428C90.58 94.6814 90.7279 94.3269 90.7284 93.9572V87.4485C90.731 84.7585 89.6794 82.1735 87.797 80.2425Z" fill="#2F2E41"/>
<path d="M80.7117 95.2873C84.9373 95.2873 88.3628 91.8792 88.3628 87.675C88.3628 83.4708 84.9373 80.0626 80.7117 80.0626C76.4861 80.0626 73.0605 83.4708 73.0605 87.675C73.0605 91.8792 76.4861 95.2873 80.7117 95.2873Z" fill="#FFB7B7"/>
<path d="M88.7541 87.027L87.8507 80.7477C87.8228 80.5549 87.724 80.3793 87.5734 80.2549C87.5226 80.2143 87.4672 80.18 87.4082 80.1526C82.7822 77.9985 78.0909 77.9985 73.4649 80.1464C73.4032 80.1748 73.3455 80.2113 73.2935 80.2549C73.2749 80.2704 73.2562 80.2889 73.2375 80.3075C73.1139 80.4346 73.037 80.5995 73.0194 80.7755L72.4151 87.0641C72.4049 87.1717 72.4173 87.2802 72.4517 87.3826C72.486 87.4851 72.5415 87.5793 72.6145 87.6592C72.7321 87.7881 72.8903 87.8733 73.063 87.901C73.105 87.9099 73.1479 87.914 73.1908 87.9134H74.7234C74.8716 87.9129 75.0166 87.8707 75.1417 87.7917C75.2669 87.7128 75.367 87.6002 75.4306 87.4671L76.0941 86.0538C76.1365 85.9622 76.2079 85.8868 76.2973 85.8393C76.3867 85.7917 76.4893 85.7745 76.5894 85.7903C76.6896 85.8061 76.7818 85.854 76.8521 85.9268C76.9223 85.9995 76.9668 86.093 76.9787 86.1932L77.1095 87.2346C77.1338 87.4217 77.2255 87.5936 77.3677 87.7185C77.5098 87.8433 77.6926 87.9126 77.8822 87.9134H87.9846C88.1168 87.914 88.2469 87.8798 88.3615 87.8142C88.4413 87.771 88.513 87.7144 88.5734 87.6469C88.6464 87.5624 88.7003 87.4634 88.7315 87.3565C88.7627 87.2495 88.7704 87.1371 88.7541 87.027Z" fill="#2F2E41"/>
<path d="M99.6319 109.234L101.8 116.455C100.453 117.393 99.0428 118.237 97.579 118.981C97.0931 119.229 96.6039 119.465 96.1056 119.688L93.8595 110.108L92.9873 106.392L98.5946 105.772L99.6319 109.234Z" fill="#FFB7B7"/>
<path d="M73.8292 108.035L73.6422 117.791L73.5613 122.109C71.4127 121.657 69.3112 121.006 67.2842 120.165L68.0288 110.923L68.2157 108.592L73.8292 108.035Z" fill="#FFB7B7"/>
<path d="M99.6319 109.234L93.9997 110.074L94.0683 110.994L94.7473 120.268C89.0675 122.556 82.8975 123.375 76.8135 122.648C75.7606 122.524 74.7211 122.354 73.6951 122.137C74.1562 120.209 74.555 118.473 74.0628 118.132C73.9145 118.029 73.7739 117.915 73.6422 117.791C71.3463 115.613 72.1937 110.694 72.1937 110.694L68.0287 110.923L66.5864 111.004C66.5864 111.004 67.2095 101.086 70.0131 101.086H73.4397L89.95 99.5361C89.95 99.5361 94.6228 97.9864 95.8688 100.156C96.523 101.293 97.688 103.705 98.6507 105.744C99.5229 107.598 100.23 109.144 100.23 109.144L99.6319 109.234Z" fill="#2F2E41"/>
<path d="M244.998 87.3487C244.939 93.0257 243.529 98.6081 240.882 103.638C238.235 108.667 234.427 113 229.77 116.282C229.689 116.338 229.605 116.397 229.521 116.455C229.434 116.517 229.343 116.579 229.253 116.638C228.73 116.998 228.196 117.342 227.652 117.67C226.885 118.135 226.101 118.572 225.3 118.981C225.275 118.994 225.247 119.006 225.222 119.019C224.761 119.254 224.296 119.477 223.826 119.688C223.811 119.694 223.798 119.701 223.783 119.707C223.674 119.756 223.558 119.809 223.446 119.855C222.577 120.24 221.689 120.59 220.786 120.9C220.016 121.17 219.236 121.411 218.443 121.625C216.823 122.07 215.173 122.399 213.506 122.611C212.084 122.793 210.653 122.89 209.219 122.902C209.101 122.905 208.983 122.905 208.864 122.905C208.082 122.905 207.304 122.88 206.534 122.831C205.861 122.788 205.195 122.729 204.534 122.648C203.516 122.527 202.509 122.366 201.519 122.155C201.475 122.149 201.432 122.14 201.388 122.13C201.354 122.124 201.316 122.115 201.282 122.109C200.285 121.901 199.304 121.647 198.341 121.356C197.435 121.083 196.545 120.775 195.672 120.432C195.447 120.345 195.226 120.258 195.005 120.165C194.454 119.936 193.908 119.697 193.373 119.44C193.217 119.369 193.064 119.295 192.912 119.22C192.394 118.969 191.884 118.706 191.385 118.427C190.784 118.095 190.193 117.747 189.613 117.382C188.881 116.924 188.164 116.44 187.469 115.929C181.297 111.417 176.726 105.071 174.414 97.8064C172.102 90.5418 172.17 82.7344 174.608 75.5107C177.045 68.287 181.727 62.0206 187.976 57.6158C194.226 53.211 201.72 50.8956 209.378 51.0036C229.193 51.2775 245.212 67.6335 244.998 87.3487Z" fill="white"/>
<path d="M201.282 122.109C200.285 121.901 199.304 121.647 198.341 121.355L201.646 100.965L205.07 100.859L211.278 100.664L214.462 100.565C214.462 100.565 216.721 110.44 218.443 121.625C216.823 122.07 215.173 122.399 213.506 122.611C212.084 122.793 210.653 122.89 209.219 122.902C209.101 122.905 208.983 122.905 208.864 122.905C208.082 122.905 207.304 122.88 206.534 122.831C205.861 122.787 205.195 122.728 204.534 122.648C203.516 122.527 202.509 122.366 201.519 122.155C201.475 122.149 201.431 122.14 201.388 122.13C201.354 122.124 201.316 122.115 201.282 122.109Z" fill="#CBCBCB"/>
<path d="M201.519 122.155C201.476 122.149 201.432 122.14 201.389 122.13C201.354 122.124 201.317 122.115 201.283 122.109C200.286 121.901 199.305 121.647 198.342 121.356C197.435 121.083 196.546 120.775 195.672 120.432C195.448 120.345 195.227 120.258 195.006 120.165C194.454 119.936 193.909 119.697 193.373 119.44C193.218 119.369 193.065 119.294 192.912 119.22L192.638 103.953L201.049 100.367C201.049 100.367 201.077 100.59 205.071 100.859C205.831 103.327 201.519 122.155 201.519 122.155Z" fill="#2F2E41"/>
<path d="M226.658 103.231L225.073 111.521L225.222 119.019C224.761 119.254 224.296 119.477 223.827 119.688C223.811 119.694 223.798 119.701 223.783 119.707C223.674 119.756 223.559 119.809 223.446 119.856C222.577 120.24 221.689 120.59 220.786 120.9C220.017 121.17 219.236 121.411 218.444 121.625C216.823 122.07 215.173 122.399 213.506 122.611C212.084 122.793 210.653 122.89 209.22 122.902L209.054 109.615C208.706 105.332 209.861 102.499 211.279 100.664C218.833 99.6601 218.665 99.5702 218.665 99.5702L226.674 103.156L226.658 103.231Z" fill="#2F2E41"/>
<path d="M196.242 105.149L195.672 120.432C195.447 120.345 195.226 120.258 195.005 120.165C194.454 119.936 193.909 119.697 193.373 119.44C193.217 119.369 193.064 119.294 192.912 119.22C192.395 118.969 191.884 118.706 191.385 118.427C190.784 118.095 190.193 117.747 189.613 117.382L192.638 103.953L196.242 105.149Z" fill="#2F2E41"/>
<path d="M229.77 116.282C229.689 116.338 229.605 116.397 229.521 116.456C229.434 116.518 229.344 116.58 229.253 116.638C228.73 116.998 228.196 117.342 227.652 117.67C226.886 118.135 226.102 118.572 225.3 118.982C225.275 118.994 225.247 119.006 225.222 119.019C224.747 119.261 224.268 119.491 223.784 119.707L223.783 119.707L223.213 104.371L226.658 103.231L226.817 103.178L229.77 116.282Z" fill="#2F2E41"/>
<path d="M217.462 89.0384C218.847 84.3402 216.151 79.4177 211.441 78.0439C206.731 76.67 201.79 79.3649 200.406 84.0631C199.021 88.7614 201.717 93.6838 206.427 95.0577C211.137 96.4316 216.078 93.7367 217.462 89.0384Z" fill="#9F616A"/>
<path d="M199.984 88.7735V85.3235C199.984 85.3235 197.187 82.0467 200.263 81.2213C200.263 81.2213 201.102 72.9672 208.373 76.8191C208.373 76.8191 218.44 75.1683 217.321 80.9462C217.321 80.9462 219.838 79.4378 218.999 83.2897L217.377 89.4945C217.377 89.4945 218.16 85.3958 215.643 84.8455L214.245 84.0201C214.245 84.0201 210.33 87.872 204.458 83.1947C204.458 83.1947 201.941 82.597 202.221 85.0733C202.501 87.5495 199.984 88.7735 199.984 88.7735Z" fill="#2F2E41"/>
<path d="M181.14 195.43C181.144 201.226 179.738 206.936 177.043 212.074C174.347 217.211 170.442 221.623 165.66 224.933C165.573 224.995 165.483 225.057 165.393 225.116C164.869 225.475 164.335 225.82 163.791 226.148C163.025 226.613 162.241 227.05 161.439 227.459C160.953 227.707 160.464 227.943 159.966 228.166C159.841 228.222 159.714 228.28 159.586 228.333C158.717 228.717 157.829 229.068 156.926 229.378C154.566 230.201 152.126 230.774 149.645 231.088C148.106 231.285 146.556 231.384 145.004 231.383C144.222 231.383 143.443 231.358 142.674 231.308C142.001 231.265 141.334 231.206 140.674 231.126C139.612 230.999 138.562 230.828 137.528 230.608C137.493 230.602 137.456 230.593 137.422 230.586C135.273 230.134 133.172 229.484 131.145 228.643C130.593 228.414 130.048 228.175 129.512 227.918C128.836 227.602 128.174 227.264 127.525 226.904C121.947 223.838 117.283 219.359 114.007 213.922C110.73 208.484 108.957 202.281 108.866 195.942C108.776 189.602 110.373 183.352 113.493 177.824C116.614 172.296 121.149 167.688 126.637 164.466C132.125 161.244 138.372 159.524 144.744 159.479C151.116 159.433 157.387 161.066 162.921 164.209C168.455 167.353 173.055 171.897 176.254 177.38C179.454 182.863 181.139 189.09 181.14 195.43Z" fill="white"/>
<path d="M144.012 204.291C148.468 204.291 152.081 200.697 152.081 196.263C152.081 191.829 148.468 188.234 144.012 188.234C139.555 188.234 135.942 191.829 135.942 196.263C135.942 200.697 139.555 204.291 144.012 204.291Z" fill="#FFB8B8"/>
<path d="M140.674 231.126C139.612 230.999 138.562 230.828 137.528 230.608L138.509 208.64L138.649 208.494L140.658 206.384H147.048L149.406 208.656L149.605 208.851L154.649 213.658L156.926 229.378C154.566 230.201 152.126 230.775 149.646 231.089C148.106 231.286 146.556 231.384 145.004 231.383C144.222 231.383 143.444 231.358 142.674 231.309C142.001 231.265 141.335 231.206 140.674 231.126Z" fill="#CBCBCB"/>
<path d="M129.513 227.918C128.837 227.602 128.174 227.264 127.525 226.904C127.46 220.953 127.416 217.002 127.416 217.002L128.176 216.54C128.185 216.535 128.195 216.531 128.204 216.528L136.83 211.314L138.64 208.389L138.649 208.494L139.182 214.662C140.786 220.11 141.954 225.677 142.674 231.308C142.001 231.265 141.335 231.206 140.674 231.126C139.612 230.999 138.562 230.828 137.528 230.608C137.494 230.602 137.456 230.593 137.422 230.586C135.273 230.134 133.172 229.484 131.145 228.643C130.594 228.414 130.048 228.175 129.513 227.918Z" fill="#2F2E41"/>
<path d="M156.925 229.378C154.566 230.201 152.126 230.774 149.645 231.088C149.302 229.088 149.175 227.057 149.268 225.029C149.941 214.327 148.39 208.389 149.063 208.389L149.405 208.655L153.639 211.984L159.212 214.017H159.215L163.05 215.415L163.726 215.663V215.982C163.729 217.086 163.735 220.947 163.791 226.148C163.025 226.613 162.241 227.05 161.439 227.459C160.953 227.707 160.464 227.943 159.966 228.166C159.841 228.222 159.714 228.28 159.586 228.333C158.717 228.717 157.829 229.068 156.925 229.378Z" fill="#2F2E41"/>
<path d="M136.377 198.774C136.377 198.774 137.063 197.577 136.904 193.575C136.744 189.573 142.869 191.836 147.987 191.455C153.105 191.073 152.021 198.136 152.021 198.136C152.021 198.136 152.391 197.716 153.181 194.307C153.972 190.898 152.177 187.502 152.177 187.502C151.648 183.92 148.799 185.068 148.799 185.068C150.171 185.599 149.908 186.735 149.908 186.735C148.746 184.709 145.897 185.857 145.897 185.857C142.098 183.485 138.247 186.609 138.247 186.609C133.657 187.646 136.349 191.277 136.349 191.277C131.733 193.598 136.377 198.774 136.377 198.774Z" fill="#2F2E41"/>
<path d="M123.609 224.406C123.728 221.682 123.781 219.925 123.718 219.68C123.398 218.403 127.778 216.692 128.176 216.54C128.185 216.536 128.195 216.531 128.204 216.528L129.095 217.002L129.513 227.918C128.837 227.602 128.174 227.264 127.525 226.905C126.167 226.157 124.859 225.323 123.609 224.406Z" fill="#2F2E41"/>
<path d="M163.791 226.148C163.025 226.613 162.241 227.05 161.439 227.459C160.953 227.707 160.464 227.943 159.966 228.166C159.841 228.222 159.714 228.281 159.586 228.333L158.184 214.563L159.003 213.968C159.003 213.968 159.078 213.986 159.212 214.017H159.215C159.872 214.179 161.891 214.712 163.05 215.415C163.309 215.561 163.538 215.753 163.726 215.982C163.84 216.119 163.897 216.295 163.885 216.472C163.847 216.832 164.471 220.241 165.393 225.116C164.869 225.476 164.335 225.82 163.791 226.148Z" fill="#2F2E41"/>
<path d="M208.864 129.835C213.412 129.835 217.1 126.166 217.1 121.641C217.1 117.116 213.412 113.448 208.864 113.448C204.316 113.448 200.629 117.116 200.629 121.641C200.629 126.166 204.316 129.835 208.864 129.835Z" fill="#43AC87"/>
<path d="M208.08 125.1L205.615 121.947L207.048 120.837L208.215 122.33L212.158 118.19L213.476 119.432L208.08 125.1Z" fill="white"/>
<path d="M81.143 130.474C85.6912 130.474 89.3783 126.806 89.3783 122.28C89.3783 117.755 85.6912 114.087 81.143 114.087C76.5948 114.087 72.9077 117.755 72.9077 122.28C72.9077 126.806 76.5948 130.474 81.143 130.474Z" fill="#43AC87"/>
<path d="M80.3586 125.739L77.8936 122.586L79.3271 121.477L80.4941 122.97L84.4369 118.829L85.7552 120.072L80.3586 125.739Z" fill="white"/>
<path d="M145.004 239.572C149.552 239.572 153.239 235.903 153.239 231.378C153.239 226.853 149.552 223.184 145.004 223.184C140.456 223.184 136.769 226.853 136.769 231.378C136.769 235.903 140.456 239.572 145.004 239.572Z" fill="#43AC87"/>
<path d="M144.219 234.837L141.754 231.684L143.188 230.574L144.355 232.067L148.298 227.927L149.616 229.169L144.219 234.837Z" fill="white"/>
</svg>
