<svg width="1280" height="721" viewBox="0 0 1280 721" fill="none" xmlns="http://www.w3.org/2000/svg">
<path d="M1280 0.998535H0V720.999H1280V0.998535Z" fill="#43AC87"/>
<path d="M854.288 631.441C853.148 635.52 850.954 639.226 847.926 642.186C844.898 645.147 841.143 647.257 837.04 648.305C832.937 649.352 828.63 649.3 824.553 648.153C820.477 647.006 816.774 644.805 813.819 641.772C772.537 598.246 681.942 475.845 737.404 280.285C761.428 195.575 804.997 127.67 866.839 78.5331C917.643 38.063 966.91 21.2896 990.612 13.3534C996.617 11.3264 1003.18 11.7681 1008.86 14.5813C1014.54 17.3945 1018.87 22.3489 1020.9 28.354C1020.92 28.429 1020.95 28.503 1020.97 28.578C1022.95 34.681 1022.46 41.318 1019.59 47.059C1016.73 52.8 1011.72 57.185 1005.65 59.27C962.926 73.786 833.183 117.788 783.399 293.329C734.787 464.734 812.759 570.505 848.431 607.972C851.421 610.999 853.542 614.775 854.573 618.904C855.603 623.033 855.505 627.363 854.288 631.441Z" fill="#43B18A"/>
<path d="M1419.67 367.419C1419.14 369.377 1418.37 371.26 1417.37 373.022C1341.58 504.724 1183.29 517.033 1176.73 517.494L1175.31 517.45C1170.84 517.435 1064.5 518.02 1019.31 458.013C998.678 430.533 993.911 396.29 1005.31 356.086C1015.92 318.695 1035.31 295.058 1064.89 283.425C1089.06 273.835 1115.28 274.657 1140.63 275.411C1193.29 276.938 1221.63 275.324 1238.92 224.455C1246.5 202.117 1237.33 183.426 1228.3 171.75C1203.67 140.097 1154.01 121.721 1104.46 126.259C1040.26 132.006 908.99 179.507 869.763 317.822C853.012 376.887 856.814 436.598 880.541 490.34C900.258 534.9 934.33 575.488 973.783 601.514C1047.3 649.891 1183.67 652.46 1184.93 652.457C1188.06 652.511 1191.15 653.181 1194.02 654.43C1196.89 655.678 1199.49 657.48 1201.67 659.733C1203.85 661.986 1205.56 664.645 1206.71 667.56C1207.86 670.474 1208.42 673.586 1208.37 676.718C1208.36 676.805 1208.36 676.892 1208.36 676.979C1208.24 683.391 1205.61 689.5 1201.02 693.987C1196.44 698.473 1190.28 700.976 1183.86 700.956C1177.65 700.803 1032.18 698.157 947.216 642.243C855.23 581.477 781.373 453.635 823.603 304.731C843.123 235.904 885.222 177.593 945.284 135.994C991.946 103.824 1048.36 82.643 1100.09 78.006C1166.12 72.066 1231.23 97.145 1265.76 141.795C1288.78 171.561 1295.32 206.486 1284.04 239.934C1254.52 327.016 1187.64 325.21 1138.86 323.888C1088.82 322.568 1064.16 323.797 1051.26 369.296C1044.18 394.278 1046.15 413.787 1057.45 428.788C1072.91 449.263 1103.36 459.148 1126.16 463.828C1126.4 463.878 1126.64 463.927 1126.88 463.976C1155.91 469.846 1185.9 469.055 1214.59 461.662C1260.7 449.926 1334.65 420.562 1375.98 348.772C1379.1 343.255 1384.28 339.2 1390.38 337.501C1396.48 335.802 1403.01 336.598 1408.53 339.712C1408.6 339.75 1408.66 339.788 1408.73 339.826C1413.33 342.584 1416.9 346.781 1418.88 351.768C1420.85 356.756 1421.13 362.257 1419.67 367.419Z" fill="#43B18A"/>
<path d="M1357.47 546.411C1356.57 549.597 1355.03 552.566 1352.95 555.141C1350.86 557.715 1348.28 559.84 1345.36 561.388C1269.04 601.057 1192.6 614.057 1104.96 602.251L1104.46 602.11C1046.78 593.081 970.679 560.772 930.207 496.74C900.35 449.482 894.312 393.249 912.283 329.882C933.538 254.934 985.483 206.029 1062.41 188.162C1097.71 180.238 1134.15 178.822 1169.96 183.984C1176.23 185.173 1181.78 188.784 1185.41 194.036C1189.04 199.287 1190.46 205.757 1189.36 212.045C1188.25 218.333 1184.72 223.935 1179.52 227.639C1174.32 231.342 1167.87 232.85 1161.57 231.835C1131.59 227.681 1101.1 229.029 1071.6 235.814C1012.73 249.866 974.631 285.894 958.396 343.139C944.366 392.608 948.442 435.593 970.669 470.676C1002.63 521.213 1066.54 547.38 1111.72 554.474C1189.17 565 1256.43 553.506 1323.54 518.556C1326.31 517.11 1329.33 516.223 1332.45 515.947C1335.56 515.67 1338.69 516.009 1341.67 516.944C1344.65 517.879 1347.42 519.393 1349.82 521.397C1352.21 523.402 1354.19 525.858 1355.64 528.627C1355.69 528.737 1355.75 528.847 1355.8 528.958C1358.5 534.368 1359.1 540.588 1357.47 546.411Z" fill="#43B18A"/>
<circle cx="164" cy="144.998" r="37" fill="#E0E7FB"/>
<path d="M157.342 143.552C156.431 143.289 155.519 143.156 154.633 143.156C153.264 143.156 152.122 143.469 151.236 143.852C152.09 140.726 154.141 135.333 158.227 134.725C158.606 134.669 158.916 134.395 159.019 134.027L159.912 130.833C159.987 130.563 159.943 130.273 159.789 130.039C159.635 129.805 159.387 129.648 159.109 129.61C158.808 129.569 158.501 129.548 158.196 129.548C153.291 129.548 148.434 134.667 146.384 141.997C145.181 146.298 144.828 152.763 147.792 156.832C149.45 159.109 151.87 160.325 154.983 160.447C154.996 160.447 155.009 160.447 155.021 160.447C158.863 160.447 162.269 157.86 163.306 154.156C163.925 151.942 163.645 149.62 162.517 147.616C161.401 145.635 159.564 144.191 157.342 143.552Z" fill="#43AC87"/>
<path d="M181.389 147.617C180.273 145.635 178.436 144.191 176.214 143.552C175.303 143.289 174.392 143.156 173.506 143.156C172.137 143.156 170.994 143.469 170.108 143.852C170.962 140.726 173.013 135.333 177.1 134.725C177.478 134.669 177.788 134.395 177.892 134.027L178.785 130.833C178.86 130.563 178.815 130.273 178.661 130.039C178.508 129.805 178.26 129.648 177.982 129.61C177.681 129.569 177.374 129.548 177.068 129.548C172.164 129.548 167.307 134.667 165.257 141.997C164.054 146.298 163.701 152.763 166.665 156.833C168.323 159.11 170.743 160.326 173.856 160.447C173.869 160.447 173.881 160.448 173.894 160.448C177.736 160.448 181.142 157.861 182.179 154.157C182.797 151.943 182.517 149.62 181.389 147.617Z" fill="#43AC87"/>
<line x1="164.5" y1="197.998" x2="164.5" y2="539.998" stroke="#E0E7FB"/>
<line x1="165" y1="423.498" x2="215" y2="423.498" stroke="#E0E7FB"/>
</svg>
