<svg width="640" height="620" viewBox="0 0 640 620" fill="none" xmlns="http://www.w3.org/2000/svg">
<rect width="640" height="620" fill="#43AC87"/>
<path fill-rule="evenodd" clip-rule="evenodd" d="M186.939 587.435C184.862 591.089 181.859 594.131 178.233 596.255C174.606 598.379 170.484 599.509 166.281 599.533C162.078 599.557 157.943 598.472 154.293 596.389C150.643 594.306 147.606 591.297 145.488 587.667C116.185 535.84 58.3326 396.221 158.694 221.218C202.167 145.412 260.427 90.4824 331.777 58.0126C390.416 31.2391 441.887 26.9154 466.616 24.9637C472.886 24.4537 479.102 26.4552 483.896 30.528C488.69 34.6008 491.67 40.4112 492.18 46.681C492.186 46.7587 492.192 46.8364 492.197 46.9141C492.641 53.2667 490.571 59.5391 486.433 64.3797C482.295 69.2202 476.421 72.2413 470.077 72.7916L470.012 72.797C425.314 76.5228 289.898 87.8102 199.854 244.822C111.889 398.209 161.578 518.784 186.934 563.428C189.086 567.062 190.223 571.207 190.223 575.431C190.224 579.654 189.09 583.8 186.939 587.435ZM794.78 468.936C793.802 470.694 792.604 472.321 791.216 473.778C686.617 582.407 531.23 556.255 524.796 555.123L523.441 554.74L523.244 554.691C516.691 553.047 416.246 527.859 387.488 460.049C374.221 428.633 377.851 394.513 398.484 358.536C417.673 325.075 442.025 306.97 473.299 302.869C498.771 299.451 523.723 306.467 547.858 313.252L548.16 313.337C598.501 327.451 626.183 332.701 655.044 287.866C667.713 268.177 663.362 247.974 657.476 234.564C641.359 198.17 597.943 168.55 549.137 161.022C485.94 151.144 348.124 165.368 277.14 289.144C246.828 342 236.153 400.412 246.098 457.861C254.386 505.506 277.452 552.771 309.195 587.306C368.371 651.542 499.082 686.759 500.288 687.057C503.292 687.861 506.107 689.249 508.574 691.141C511.041 693.033 513.111 695.392 514.666 698.084C516.221 700.776 517.231 703.748 517.637 706.83C518.044 709.913 517.839 713.045 517.035 716.048C517.013 716.131 516.991 716.215 516.967 716.298C515.315 722.444 511.31 727.695 505.82 730.914C500.329 734.134 493.792 735.065 487.62 733.505L487.317 733.422C478.02 730.875 341.325 693.415 273.833 620.149C199.843 539.547 159.415 398.705 235.832 265.454C271.154 203.862 325.695 157.818 393.521 132.181C446.179 112.405 505.592 105.553 556.514 113.507C621.532 123.643 678.205 163.424 700.735 214.711C715.755 248.902 713.668 284.104 694.782 313.606C645.443 390.376 581.474 372.579 534.815 359.593C486.95 346.309 462.908 341.572 439.558 382.288C426.737 404.645 423.955 423.905 431.232 441.064C441.209 464.493 468.154 481.322 488.99 491.304C489.101 491.358 489.211 491.411 489.321 491.464C489.428 491.515 489.535 491.566 489.642 491.617C516.194 504.242 545.263 510.68 574.663 510.449C621.889 510.22 700.148 499.698 757.184 440.489C761.508 435.923 767.469 433.263 773.755 433.092C780.04 432.922 786.136 435.255 790.702 439.579C790.757 439.631 790.812 439.684 790.866 439.736C794.637 443.497 797.063 448.395 797.771 453.673C798.478 458.951 797.427 464.315 794.78 468.936ZM685.454 633.686C688.077 631.707 690.271 629.216 691.904 626.365C694.869 621.148 695.792 615.016 694.492 609.158C694.465 609.038 694.437 608.919 694.409 608.799C693.681 605.786 692.366 602.945 690.541 600.44C688.715 597.934 686.414 595.813 683.769 594.197C681.123 592.581 678.185 591.501 675.123 591.021C672.06 590.54 668.933 590.667 665.919 591.395C592.899 608.937 525.375 603.858 453.316 575.125C411.511 557.447 356.258 516.906 337.61 460.565C324.63 421.445 331.025 379.073 356.413 334.804C385.791 283.576 431.134 258.031 491.191 258.632C521.227 259.181 550.911 265.202 578.786 276.402C584.612 278.892 591.184 278.989 597.081 276.671C602.978 274.353 607.725 269.807 610.296 264.016C612.868 258.225 613.056 251.655 610.82 245.726C608.585 239.798 604.106 234.987 598.351 232.336C565.112 218.768 529.676 211.382 493.785 210.538C415.417 209.274 353.653 243.896 315.19 310.966C282.67 367.672 274.984 423.273 292.388 475.949C315.988 547.328 381.517 596.712 434.893 619.256L435.337 619.511C516.896 651.921 593.628 657.756 676.644 637.879C679.834 637.091 682.831 635.665 685.454 633.686Z" fill="#43B18A"/>
<circle cx="119" cy="138" r="37" fill="#E0E7FB"/>
<path d="M112.342 136.553C111.431 136.291 110.519 136.158 109.633 136.158C108.264 136.158 107.122 136.471 106.236 136.854C107.09 133.728 109.141 128.334 113.227 127.727C113.606 127.671 113.916 127.397 114.019 127.029L114.912 123.834C114.987 123.564 114.943 123.275 114.789 123.041C114.635 122.806 114.387 122.65 114.109 122.612C113.808 122.571 113.501 122.55 113.196 122.55C108.291 122.55 103.434 127.669 101.384 134.999C100.181 139.299 99.8285 145.764 102.792 149.834C104.45 152.111 106.87 153.327 109.983 153.448C109.996 153.449 110.009 153.449 110.021 153.449C113.863 153.449 117.269 150.862 118.306 147.158C118.925 144.944 118.645 142.622 117.517 140.618C116.401 138.637 114.564 137.193 112.342 136.553Z" fill="#43AC87"/>
<path d="M136.389 140.618C135.273 138.637 133.436 137.193 131.214 136.553C130.303 136.291 129.392 136.158 128.506 136.158C127.137 136.158 125.994 136.471 125.108 136.854C125.962 133.728 128.013 128.334 132.1 127.727C132.478 127.671 132.788 127.397 132.892 127.029L133.785 123.834C133.86 123.564 133.815 123.275 133.661 123.041C133.508 122.806 133.26 122.65 132.982 122.612C132.681 122.571 132.374 122.55 132.068 122.55C127.164 122.55 122.307 127.669 120.257 134.999C119.054 139.299 118.701 145.764 121.665 149.835C123.323 152.111 125.743 153.328 128.856 153.449C128.869 153.449 128.881 153.449 128.894 153.449C132.736 153.449 136.142 150.862 137.179 147.158C137.797 144.944 137.517 142.622 136.389 140.618Z" fill="#43AC87"/>
<line x1="119.5" y1="191" x2="119.5" y2="533" stroke="#E0E7FB"/>
<line x1="120" y1="416.5" x2="170" y2="416.5" stroke="#E0E7FB"/>
</svg>
