<svg width="450" height="516" viewBox="0 0 450 516" fill="none" xmlns="http://www.w3.org/2000/svg">
<path d="M1 71C1 60.5066 9.50659 52 20 52H357C367.493 52 376 60.5066 376 71V129C376 139.493 367.493 148 357 148H1V71Z" fill="#F9F9F9" stroke="#B3B3B3" stroke-width="2"/>
<circle cx="19" cy="19" r="19" fill="#C4C4C4"/>
<path d="M58 17.3118C138.325 42.0813 186.775 -2.69898 262 17.3118" stroke="#282824" stroke-width="3"/>
<path d="M19 83.3118C143.819 108.081 219.106 63.301 336 83.3118" stroke="#282824" stroke-width="1.5"/>
<path d="M19 117.312C114.681 142.081 172.394 97.301 262 117.312" stroke="#282824" stroke-width="1.5"/>
<path d="M74 280C74 269.507 82.5066 261 93 261H430C440.493 261 449 269.507 449 280V329H93C82.5066 329 74 320.493 74 310V280Z" fill="#F9F9F9" stroke="#B3B3B3" stroke-width="2"/>
<circle cx="431" cy="228" r="19" fill="#C4C4C4"/>
<path d="M181 226.312C261.325 251.081 309.775 206.301 385 226.312" stroke="#282824" stroke-width="3"/>
<path d="M92 293.312C216.819 318.081 292.106 273.301 409 293.312" stroke="#282824" stroke-width="1.5"/>
<path d="M1 461C1 450.507 9.50659 442 20 442H357C367.493 442 376 450.507 376 461V496C376 506.493 367.493 515 357 515H1V461Z" fill="#F9F9F9" stroke="#B3B3B3" stroke-width="2"/>
<circle cx="19" cy="409" r="19" fill="#C4C4C4"/>
<path d="M58 407.312C138.325 432.081 186.775 387.301 262 407.312" stroke="#282824" stroke-width="3"/>
<circle cx="38" cy="479" r="10" fill="#43AC87"/>
<line x1="64" y1="478" x2="324" y2="478" stroke="#282824" stroke-width="2"/>
<line x1="64" y1="478" x2="189" y2="478" stroke="#43AC87" stroke-width="2"/>
<circle cx="189" cy="477" r="5" fill="#43AC87"/>
</svg>
